<svg width="778" height="406" viewBox="0 0 778 406" fill="none" xmlns="http://www.w3.org/2000/svg">
<path d="M692.63 0.230469L488.04 294.43L485.67 297.8H427.84V93.6005L327.73 237.6L293.72 286.54L285.91 297.8L233.51 373.1V72.0804H293.72V181.07L377.59 60.4305L419.41 0.230469H488.04V189.04L619.33 0.230469H692.63Z" fill="#48EEFF"/>
<path d="M378.65 0.230469L336.83 60.4305H221.02V297.8H160.82V60.4305H0.5L42.4 0.230469H378.65Z" fill="white"/>
<path d="M777.5 0.230469V297.8H717.3V186.89H666.69L717.3 111.85V92.8304L574.75 297.8H501.52L708.41 0.230469H777.5Z" fill="white"/>
<path d="M777.5 327.47H279.86L292.24 310.21H777.5V327.47Z" fill="white"/>
<path d="M223.04 327.47H161.78L159.78 310.21H221.04L223.04 327.47Z" fill="white"/>
<path d="M427 338.7C427.12 338.609 427.257 338.543 427.403 338.507C427.55 338.471 427.702 338.465 427.85 338.49C428.202 338.553 428.523 338.732 428.76 339C429.055 339.345 429.252 339.763 429.33 340.21C429.438 340.83 429.404 341.465 429.23 342.07C429.047 342.76 428.704 343.397 428.23 343.93C427.704 344.47 427.056 344.874 426.34 345.11C425.304 345.474 424.225 345.703 423.13 345.79C421.82 345.93 420.2 346.02 418.26 346.06H416.26C415.57 346.06 414.83 346.12 414.07 346.17C413.17 347.697 412.067 349.587 410.76 351.84C409.45 354.1 408.04 356.55 406.53 359.21C405.02 361.87 403.53 364.62 401.97 367.46C400.41 370.3 399.02 373.07 397.72 375.77C396.053 379.243 394.78 382.103 393.9 384.35C393.02 386.597 392.387 388.41 392 389.79C391.702 390.77 391.488 391.774 391.36 392.79C391.36 393.45 391.27 393.91 391.23 394.18C391.224 394.476 391.19 394.77 391.13 395.06C391.053 395.387 390.913 395.695 390.72 395.97C390.512 396.269 390.234 396.513 389.91 396.68C389.499 396.872 389.041 396.945 388.59 396.89C388.134 396.847 387.705 396.653 387.37 396.34C386.867 395.904 386.485 395.346 386.26 394.72C385.933 393.821 385.783 392.866 385.82 391.91C385.868 390.498 386.117 389.101 386.56 387.76C386.92 386.68 387.53 385.17 388.39 383.23C389.24 381.3 390.24 379.14 391.39 376.78C392.54 374.42 393.71 371.95 394.97 369.38C396.23 366.81 397.45 364.38 398.62 362.11L401.77 356C402.69 354.187 403.373 352.853 403.82 352C404.27 351.19 404.72 350.34 405.15 349.46C405.58 348.58 406.01 347.69 406.46 346.79C403.04 347.15 399.483 347.613 395.79 348.18C392.097 348.747 388.557 349.413 385.17 350.18C385.12 350.374 384.999 350.542 384.83 350.65C384.661 350.757 384.457 350.797 384.26 350.76C383.792 350.668 383.364 350.43 383.04 350.08C382.631 349.656 382.32 349.148 382.13 348.59C381.908 347.995 381.873 347.346 382.03 346.73C382.252 346.021 382.702 345.406 383.31 344.98C384.295 344.326 385.417 343.909 386.59 343.76C387.99 343.49 389.59 343.25 391.42 343.02C393.25 342.79 395.18 342.58 397.2 342.38C399.22 342.18 401.3 341.99 403.42 341.84C405.54 341.69 407.56 341.53 409.5 341.4C410.5 339.82 411.37 338.9 412.14 338.63C412.468 338.585 412.801 338.606 413.121 338.692C413.44 338.778 413.739 338.927 414 339.13C414.744 339.558 415.362 340.176 415.79 340.92C417.59 340.79 418.98 340.65 419.98 340.52C421.42 340.38 422.55 340.25 423.36 340.11C424.011 340.016 424.653 339.868 425.28 339.67C425.651 339.566 426.005 339.408 426.33 339.2C426.564 339.048 426.788 338.881 427 338.7V338.7Z" fill="white"/>
<path d="M426.7 381.21C427.394 380.698 428.212 380.38 429.07 380.29C429.153 380.292 429.235 380.315 429.308 380.355C429.381 380.396 429.443 380.453 429.489 380.523C429.536 380.592 429.564 380.672 429.573 380.755C429.582 380.838 429.57 380.922 429.54 381C429.384 381.536 429.119 382.033 428.76 382.46C428.38 382.977 427.913 383.424 427.38 383.78C426.88 384.09 425.85 384.67 424.3 385.5C422.75 386.33 421.02 387.21 419.13 388.13C417.24 389.05 415.34 389.91 413.45 390.7C411.965 391.352 410.43 391.884 408.86 392.29C407.841 392.563 406.768 392.563 405.75 392.29C404.955 392.062 404.241 391.615 403.69 391C403.176 390.433 402.814 389.745 402.64 389C402.464 388.303 402.44 387.577 402.57 386.87C402.766 386.018 403.027 385.182 403.35 384.37C403.77 383.298 404.268 382.259 404.84 381.26C405.469 380.138 406.167 379.056 406.93 378.02C407.689 376.98 408.535 376.006 409.46 375.11C410.219 374.368 411.046 373.699 411.93 373.11C412.61 372.675 413.334 372.313 414.09 372.03C414.662 371.829 415.251 371.682 415.85 371.59C416.288 371.536 416.731 371.536 417.17 371.59C417.713 371.671 418.227 371.892 418.66 372.23C419.22 372.639 419.727 373.116 420.17 373.65C420.664 374.233 421.075 374.883 421.39 375.58C421.712 376.239 421.931 376.944 422.04 377.67C422.085 378.384 421.879 379.091 421.46 379.67C420.999 380.334 420.443 380.928 419.81 381.43C419.121 381.977 418.384 382.462 417.61 382.88C416.82 383.31 416.09 383.68 415.41 384C414.73 384.32 414.09 384.63 413.49 384.94C412.953 385.233 412.372 385.439 411.77 385.55C411.234 385.643 410.683 385.598 410.17 385.42C409.546 385.145 409.034 384.665 408.72 384.06C408.552 384.308 408.405 384.569 408.28 384.84C408.124 385.149 408.068 385.498 408.12 385.84C408.15 386.013 408.219 386.176 408.324 386.316C408.428 386.457 408.563 386.571 408.72 386.65C409.29 386.917 409.927 387.011 410.55 386.92C411.669 386.836 412.777 386.645 413.86 386.35C415.193 386.01 416.623 385.58 418.15 385.06C419.676 384.54 421.186 383.943 422.68 383.27C424.18 382.56 425.53 381.88 426.7 381.21ZM416 377.29C415.134 377.594 414.324 378.037 413.6 378.6C412.93 379.19 412.311 379.836 411.75 380.53C412.127 380.414 412.498 380.277 412.86 380.12C413.323 379.93 413.766 379.692 414.18 379.41C414.615 379.129 415.011 378.793 415.36 378.41C415.672 378.102 415.893 377.715 416 377.29V377.29Z" fill="white"/>
<path d="M440.28 368.5C440.838 368.404 441.405 368.371 441.97 368.4C442.645 368.415 443.316 368.506 443.97 368.67C444.6 368.826 445.204 369.075 445.76 369.41C446.295 369.721 446.728 370.179 447.01 370.73C447.479 371.438 447.694 372.284 447.62 373.13C447.602 373.253 447.559 373.37 447.495 373.477C447.43 373.583 447.345 373.675 447.245 373.748C447.144 373.82 447.03 373.872 446.909 373.9C446.788 373.928 446.662 373.931 446.54 373.91C446.412 373.913 446.285 373.884 446.171 373.825C446.057 373.765 445.96 373.677 445.89 373.57C445.736 373.339 445.547 373.133 445.33 372.96C445.052 372.767 444.718 372.672 444.38 372.69C443.765 372.767 443.179 373.001 442.68 373.37C441.728 373.966 440.846 374.667 440.05 375.46C439.05 376.41 438.05 377.46 437.11 378.57C436.17 379.68 435.26 380.81 434.47 381.92C433.831 382.76 433.3 383.677 432.89 384.65C432.636 385.287 432.497 385.964 432.48 386.65C432.469 386.915 432.512 387.18 432.604 387.429C432.697 387.678 432.838 387.906 433.02 388.1C433.491 388.501 434.091 388.718 434.71 388.71C435.734 388.709 436.75 388.526 437.71 388.17C438.96 387.76 440.52 387.17 442.37 386.34C444.22 385.51 446.14 384.6 448.14 383.54C450.14 382.48 452.14 381.37 454.14 380.19C456.14 379.01 457.96 377.87 459.58 376.74C460.21 376.34 460.58 376.38 460.67 376.88C460.76 377.38 460.3 378.28 459.31 379.58C458.661 380.336 457.898 380.987 457.05 381.51C455.85 382.35 454.44 383.28 452.79 384.31C451.14 385.34 449.36 386.42 447.45 387.53C445.54 388.64 443.69 389.64 441.91 390.53C440.13 391.42 438.52 392.23 437.07 392.86C436.034 393.38 434.935 393.763 433.8 394C432.291 394.24 430.748 393.881 429.5 393C428.304 392.226 427.373 391.106 426.83 389.79C426.342 388.611 426.006 387.374 425.83 386.11C425.769 384.708 426.116 383.318 426.83 382.11C427.187 381.407 427.605 380.738 428.08 380.11C428.694 379.276 429.404 378.376 430.21 377.41C431.02 376.41 431.89 375.46 432.81 374.47C433.73 373.48 434.65 372.56 435.55 371.73C436.371 370.966 437.24 370.254 438.15 369.6C438.79 369.11 439.511 368.738 440.28 368.5V368.5Z" fill="white"/>
<path d="M476.44 347.48C476.979 347.799 477.413 348.268 477.69 348.83C477.85 349.04 477.95 349.289 477.979 349.552C478.009 349.814 477.968 350.079 477.86 350.32C477.77 350.46 477.36 351.14 476.64 352.38C475.92 353.62 475.02 355.22 473.94 357.18C472.86 359.14 471.65 361.35 470.32 363.8C468.99 366.25 467.7 368.74 466.44 371.24C465.18 373.74 464 376.16 463 378.5C462 380.84 461.13 382.87 460.54 384.59C461.887 383.009 463.381 381.56 465 380.26C466.693 378.865 468.462 377.566 470.3 376.37C471.897 375.326 473.568 374.4 475.3 373.6C476.396 373.019 477.602 372.678 478.84 372.6C479.49 372.575 480.134 372.726 480.706 373.035C481.278 373.345 481.756 373.802 482.09 374.36C482.67 375.44 482.537 376.95 481.69 378.89C481.003 380.236 480.456 381.651 480.06 383.11C479.88 383.99 480.31 384.27 481.34 383.96C482.032 383.74 482.702 383.455 483.34 383.11C484.17 382.69 485.04 382.21 485.94 381.69L488.61 380.14C489.49 379.62 490.22 379.14 490.8 378.75C491.38 378.36 491.8 378.32 491.92 378.55C492.04 378.78 492.03 379.19 491.78 379.8C491.433 380.592 490.993 381.341 490.47 382.03C489.731 383.025 488.893 383.943 487.97 384.77C486.97 385.77 485.97 386.58 485.03 387.37C484.177 388.103 483.285 388.79 482.36 389.43C481.576 389.981 480.708 390.403 479.79 390.68C478.912 390.928 477.992 390.986 477.09 390.85C476.646 390.803 476.218 390.657 475.838 390.424C475.457 390.19 475.133 389.874 474.89 389.5C474.356 388.687 474.014 387.764 473.89 386.8C473.73 385.686 473.764 384.552 473.99 383.45C474.204 382.296 474.613 381.186 475.2 380.17C474.93 379.99 474.4 380.06 473.62 380.37C472.643 380.786 471.703 381.285 470.81 381.86C469.611 382.624 468.459 383.459 467.36 384.36C466.118 385.384 464.945 386.49 463.85 387.67C461.6 390.11 459.72 392.04 458.21 393.49C456.7 394.94 455.47 395.6 454.52 395.49C454.233 395.438 453.962 395.322 453.728 395.148C453.494 394.975 453.303 394.749 453.17 394.49C452.738 393.82 452.401 393.093 452.17 392.33C451.931 391.527 451.793 390.697 451.76 389.86C451.712 389.172 451.843 388.483 452.14 387.86C452.32 387.54 452.74 386.75 453.39 385.49L455.76 380.93C456.68 379.15 457.68 377.213 458.76 375.12C459.82 373.02 460.85 371 461.87 369.03C462.89 367.06 463.87 365.27 464.7 363.63C465.53 361.99 466.27 360.71 466.77 359.81C467.53 358.46 468.26 357.12 468.93 355.81C469.6 354.5 470.2 353.25 470.72 352.13C471.24 351.01 471.72 350.05 472 349.29C472.28 348.53 472.56 348 472.65 347.73C472.884 347.26 473.294 346.901 473.79 346.73C474.28 346.5 475.18 346.76 476.44 347.48Z" fill="white"/>
<path d="M568.89 344.78C569.412 344.998 569.86 345.363 570.18 345.83C570.466 346.331 570.595 346.906 570.55 347.48C570.483 348.319 570.277 349.14 569.94 349.91C569.448 351.077 568.873 352.206 568.22 353.29C568.03 353.65 567.72 354.29 567.22 355.19C566.72 356.09 566.22 357.19 565.66 358.4C565.1 359.61 564.45 360.96 563.77 362.4L561.77 366.59C561.11 367.97 560.49 369.27 559.88 370.48C559.27 371.69 558.77 372.71 558.35 373.48C557.93 374.25 557.28 375.48 556.46 376.83C555.64 378.18 554.76 379.59 553.8 381.12C552.84 382.65 551.8 384.18 550.8 385.72C549.8 387.26 548.8 388.72 547.9 389.97C547 391.22 546.22 392.37 545.57 393.25C545.162 393.829 544.721 394.383 544.25 394.91C544.015 395.175 543.722 395.382 543.394 395.515C543.067 395.649 542.713 395.705 542.36 395.68C541.681 395.537 541.012 395.346 540.36 395.11C539.366 394.803 538.464 394.257 537.73 393.52C537.236 393.001 536.89 392.359 536.73 391.66C536.59 391.028 536.59 390.373 536.73 389.74C536.86 389.08 537 388.49 537.13 387.94C537.13 387.67 537.26 387.1 537.37 386.22C537.48 385.34 537.61 384.29 537.75 383.04C537.89 381.79 538.02 380.44 538.15 378.96C538.28 377.48 538.42 375.96 538.55 374.43C538.87 370.87 539.2 366.9 539.55 362.53C538.064 364.29 536.675 366.129 535.39 368.04C533.97 370.14 532.59 372.29 531.23 374.49C529.87 376.69 528.59 378.89 527.35 381.05C526.11 383.21 524.98 385.17 523.97 386.9C522.96 388.63 522.08 390.07 521.34 391.22C520.923 391.989 520.359 392.669 519.68 393.22C519.371 393.394 519.031 393.506 518.68 393.55C518.529 394.054 518.216 394.493 517.79 394.8C517.269 395.127 516.65 395.261 516.04 395.18C515.664 395.176 515.294 395.084 514.96 394.91C514.573 394.684 514.234 394.385 513.96 394.03C513.577 393.53 513.279 392.969 513.08 392.37C512.798 391.526 512.604 390.654 512.5 389.77C512.458 389.469 512.437 389.165 512.44 388.86C512.44 388.52 512.44 388.15 512.37 387.74C512.281 387.413 512.281 387.068 512.37 386.74C512.37 385.52 512.3 384.09 512.3 382.45V377.14C512.3 375.25 512.3 373.31 512.37 371.33C512.44 369.35 512.46 367.41 512.5 365.52C512.586 361.06 512.726 356.44 512.92 351.66C512.592 351.509 512.311 351.273 512.107 350.975C511.903 350.678 511.783 350.33 511.76 349.97C511.674 349.108 511.745 348.237 511.97 347.4C512.195 346.518 512.531 345.668 512.97 344.87C513.232 344.265 513.621 343.723 514.11 343.28C514.385 343.055 514.709 342.895 515.055 342.814C515.402 342.733 515.763 342.731 516.11 342.81C516.801 343.044 517.47 343.338 518.11 343.69C519.094 344.187 519.995 344.835 520.78 345.61C521.271 346.111 521.65 346.711 521.89 347.37C522.068 347.901 522.116 348.467 522.03 349.02C521.94 349.57 521.83 350.11 521.69 350.65C521.54 351.328 521.45 352.017 521.42 352.71C521.33 353.81 521.23 355.17 521.12 356.77C521.01 358.37 520.89 360.15 520.78 362.14C520.67 364.13 520.57 366.14 520.48 368.14C520.246 372.92 519.973 378.214 519.66 384.02C519.531 384.59 519.444 385.168 519.4 385.75C519.4 386.31 519.31 386.89 519.26 387.47C519.93 386.21 520.77 384.75 521.76 383.08C522.75 381.41 523.81 379.64 524.94 377.77C526.07 375.9 527.21 374.01 528.39 372.1C529.57 370.19 530.67 368.37 531.73 366.66C532.79 364.95 533.73 363.39 534.57 361.99C535.41 360.59 536.07 359.47 536.57 358.61C537.224 357.497 537.789 356.333 538.26 355.13C538.559 354.295 538.92 353.483 539.34 352.7C539.662 352.101 540.125 351.59 540.69 351.21C541.465 350.804 542.316 350.562 543.19 350.5C543.593 350.47 543.998 350.527 544.378 350.667C544.757 350.806 545.102 351.026 545.39 351.31C546.13 351.95 546.69 353.31 547.04 355.31C547.204 356.281 547.275 357.266 547.25 358.25C547.25 359.49 547.25 360.89 547.15 362.44C547.05 363.99 546.99 365.65 546.88 367.44C546.77 369.23 546.64 370.93 546.51 372.64C546.15 376.7 545.72 381.074 545.22 385.76C545.986 384.494 546.876 382.894 547.89 380.96C548.89 379.02 549.95 376.96 551.04 374.7C552.13 372.44 553.21 370.18 554.32 367.81C555.43 365.44 556.46 363.24 557.46 361.19C558.46 359.14 559.33 357.31 560.09 355.71C560.85 354.11 561.44 352.95 561.85 352.23C562.471 351.176 562.935 350.038 563.23 348.85C563.469 347.821 563.804 346.817 564.23 345.85C564.541 345.112 565.119 344.519 565.85 344.19C566.45 343.91 567.49 344.1 568.89 344.78Z" fill="#48EEFF"/>
<path d="M580.05 379C580.475 378.707 580.96 378.513 581.47 378.43C581.83 378.43 582.07 378.51 582.18 378.73C582.236 378.898 582.249 379.077 582.22 379.251C582.19 379.425 582.118 379.59 582.01 379.73C581.697 380.236 581.31 380.691 580.86 381.08C580.5 381.4 579.86 381.9 579 382.6C578.14 383.3 577.13 384.07 576 384.9C574.87 385.73 573.71 386.59 572.45 387.47C571.19 388.35 569.99 389.17 568.86 389.93C567.73 390.69 566.72 391.36 565.79 391.93C565.173 392.354 564.5 392.691 563.79 392.93C563.173 393.11 562.517 393.11 561.9 392.93C561.267 392.751 560.694 392.406 560.24 391.93C559.744 391.384 559.376 390.735 559.16 390.03C558.904 389.202 558.822 388.331 558.92 387.47C559.047 386.356 559.285 385.257 559.63 384.19C560.01 382.95 560.47 381.7 560.98 380.44C561.49 379.18 562.04 378.01 562.61 376.93C563.03 376.066 563.539 375.248 564.13 374.49C564.643 373.722 565.282 373.045 566.02 372.49C566.341 372.284 566.721 372.192 567.1 372.229C567.479 372.265 567.834 372.427 568.11 372.69C568.568 373.014 568.988 373.39 569.36 373.81C569.736 374.216 570.07 374.658 570.36 375.13C570.589 375.443 570.709 375.822 570.7 376.21C570.707 376.414 570.668 376.616 570.587 376.803C570.506 376.99 570.384 377.156 570.23 377.29C569.96 377.47 569.51 377.74 568.87 378.1C568.559 378.395 568.289 378.731 568.07 379.1C567.71 379.62 567.33 380.21 566.95 380.89C566.57 381.57 566.21 382.29 565.87 383.05C565.53 383.81 565.26 384.51 565.06 385.11C564.886 385.579 564.781 386.071 564.75 386.57C564.75 386.93 564.91 387.06 565.23 386.97C566.202 386.626 567.142 386.198 568.04 385.69L572.49 383.36C574.09 382.53 575.61 381.7 577.02 380.89C578.43 380.08 579.46 379.4 580.05 379ZM572.48 367.85C572.137 368.123 571.76 368.351 571.36 368.53C570.899 368.748 570.411 368.906 569.91 369C569.454 369.09 568.986 369.09 568.53 369C568.327 368.964 568.136 368.878 567.975 368.749C567.814 368.619 567.688 368.451 567.61 368.26C567.379 367.854 567.175 367.433 567 367C566.832 366.539 566.708 366.064 566.63 365.58C566.576 365.175 566.576 364.765 566.63 364.36C566.629 364.212 566.675 364.067 566.761 363.947C566.847 363.826 566.969 363.736 567.11 363.69L568.11 363.34L569.36 362.97C569.77 362.86 570.13 362.77 570.44 362.71C570.64 362.658 570.844 362.621 571.05 362.6C571.197 362.582 571.345 362.597 571.485 362.644C571.625 362.691 571.753 362.768 571.86 362.87C572.142 363.109 572.391 363.385 572.6 363.69C572.83 364 573.06 364.34 573.28 364.69C573.483 365.02 573.71 365.334 573.96 365.63C574.36 366.13 574.35 366.53 573.96 366.82C573.448 367.149 572.954 367.507 572.48 367.89V367.85Z" fill="#48EEFF"/>
<path d="M605.66 348.23C605.702 348.386 605.682 348.553 605.606 348.696C605.53 348.838 605.403 348.947 605.25 349C604.911 349.14 604.629 349.39 604.45 349.71C604.04 350.3 603.45 351.04 602.79 351.94C602.13 352.84 601.25 353.94 600.26 355.39C599.27 356.84 598.13 358.47 596.84 360.46C595.55 362.45 594.15 364.81 592.62 367.55L595.39 367.32C596.24 367.25 596.99 367.17 597.62 367.08C598.7 366.947 599.58 366.857 600.26 366.81C600.786 366.769 601.314 366.769 601.84 366.81C602.09 366.815 602.334 366.884 602.55 367.01C602.594 367.053 602.624 367.109 602.637 367.169C602.649 367.23 602.643 367.293 602.62 367.35C602.478 367.656 602.296 367.942 602.08 368.2C601.69 368.697 601.248 369.149 600.76 369.55C600.096 370.088 599.382 370.564 598.63 370.97C597.695 371.474 596.68 371.812 595.63 371.97L592.93 372.41C591.93 372.56 590.81 372.75 589.68 372.98C589.28 373.75 588.86 374.52 588.43 375.31C588 376.1 587.57 376.95 587.12 377.85C584.773 382.517 582.927 386.347 581.58 389.34C580.233 392.333 579.193 394.777 578.46 396.67C577.75 398.54 577.25 399.97 576.97 400.96C576.69 401.95 576.48 402.72 576.3 403.26C576.06 404.216 575.472 405.047 574.65 405.59C573.9 406.02 573.17 405.76 572.45 404.81C571.673 403.535 571.418 402.008 571.74 400.55C572.082 398.398 572.732 396.307 573.67 394.34C573.94 393.66 574.36 392.65 574.95 391.34C575.54 390.03 576.2 388.4 576.95 386.57C577.7 384.74 578.53 382.77 579.45 380.57L582.26 374.12L580.37 374.36C579.919 374.417 579.465 374.45 579.01 374.46C578.722 374.481 578.435 374.422 578.179 374.29C577.923 374.157 577.709 373.957 577.56 373.71C577.175 373.161 576.9 372.543 576.75 371.89C576.59 371.235 576.57 370.553 576.69 369.89C576.708 369.63 576.796 369.38 576.944 369.165C577.091 368.951 577.294 368.78 577.53 368.67C577.836 368.529 578.15 368.406 578.47 368.3C578.692 368.237 578.92 368.194 579.15 368.17C579.406 368.15 579.664 368.15 579.92 368.17C580.363 368.201 580.807 368.201 581.25 368.17H582.66L585 368C585.95 366 586.88 364.08 587.81 362.32C588.74 360.56 589.57 359.03 590.34 357.73C593.18 353.063 595.377 349.73 596.93 347.73C598.483 345.73 599.667 344.773 600.48 344.86C600.995 344.987 601.492 345.179 601.96 345.43C602.541 345.733 603.105 346.067 603.65 346.43C604.146 346.715 604.612 347.05 605.04 347.43C605.303 347.647 605.515 347.92 605.66 348.23V348.23Z" fill="#48EEFF"/>
<path d="M616.21 347.48C616.748 347.797 617.18 348.267 617.45 348.83C617.608 349.041 617.708 349.289 617.74 349.551C617.771 349.812 617.734 350.078 617.63 350.32C617.54 350.46 617.13 351.14 616.41 352.38C615.69 353.62 614.78 355.22 613.71 357.18C612.64 359.14 611.42 361.35 610.09 363.8C608.76 366.25 607.46 368.74 606.2 371.24C604.94 373.74 603.78 376.16 602.72 378.5C601.66 380.84 600.84 382.87 600.26 384.59C601.607 383.009 603.1 381.56 604.72 380.26C606.411 378.863 608.18 377.564 610.02 376.37C611.618 375.328 613.289 374.402 615.02 373.6C616.119 373.018 617.329 372.677 618.57 372.6C619.22 372.576 619.863 372.727 620.435 373.037C621.007 373.346 621.485 373.803 621.82 374.36C622.4 375.44 622.263 376.95 621.41 378.89C620.729 380.238 620.186 381.652 619.79 383.11C619.61 383.99 620.04 384.27 621.07 383.96C621.763 383.742 622.433 383.457 623.07 383.11C623.9 382.69 624.77 382.21 625.68 381.69L628.35 380.14C629.22 379.62 629.96 379.14 630.54 378.75C631.12 378.36 631.54 378.32 631.65 378.55C631.76 378.78 631.77 379.19 631.52 379.8C631.168 380.592 630.725 381.34 630.2 382.03C629.464 383.027 628.626 383.946 627.7 384.77C626.7 385.77 625.7 386.58 624.76 387.37C623.91 388.107 623.019 388.795 622.09 389.43C621.308 389.98 620.444 390.402 619.53 390.68C618.649 390.928 617.725 390.986 616.82 390.85C616.378 390.801 615.952 390.655 615.573 390.422C615.194 390.188 614.872 389.873 614.63 389.5C614.101 388.685 613.759 387.763 613.63 386.8C613.344 384.505 613.807 382.18 614.95 380.17C614.68 379.99 614.15 380.06 613.36 380.37C612.386 380.787 611.45 381.285 610.56 381.86C609.36 382.621 608.207 383.456 607.11 384.36C605.864 385.384 604.689 386.489 603.59 387.67C601.34 390.11 599.46 392.04 597.95 393.49C596.44 394.94 595.22 395.6 594.27 395.49C593.982 395.441 593.71 395.325 593.476 395.151C593.241 394.977 593.051 394.751 592.92 394.49C592.488 393.82 592.151 393.093 591.92 392.33C591.675 391.528 591.537 390.698 591.51 389.86C591.459 389.172 591.586 388.483 591.88 387.86C592.06 387.54 592.48 386.75 593.13 385.49L595.5 380.93C596.42 379.15 597.42 377.21 598.5 375.12C599.58 373.03 600.6 371 601.61 369.03C602.62 367.06 603.61 365.27 604.45 363.63C605.29 361.99 606.01 360.71 606.51 359.81C607.277 358.476 608 357.143 608.68 355.81C609.35 354.48 609.95 353.25 610.46 352.13C610.97 351.01 611.46 350.05 611.75 349.29C612.04 348.53 612.3 348 612.39 347.73C612.626 347.258 613.04 346.898 613.54 346.73C614 346.5 614.94 346.76 616.21 347.48Z" fill="#48EEFF"/>
<path d="M690.82 344.64C691.676 344.656 692.526 344.78 693.35 345.01C694.261 345.255 695.075 345.775 695.68 346.5C696.371 347.395 696.772 348.48 696.83 349.61C696.904 351.376 696.604 353.137 695.95 354.78C695.323 356.58 694.357 358.966 693.05 361.94C691.743 364.913 690.3 368.09 688.72 371.47C689.613 371.441 690.504 371.556 691.36 371.81C691.844 371.939 692.272 372.224 692.58 372.62C692.655 372.783 692.681 372.964 692.655 373.142C692.628 373.32 692.55 373.486 692.43 373.62C692.076 374.074 691.616 374.435 691.09 374.67C690.547 374.907 689.98 375.088 689.4 375.21C688.63 375.39 687.71 375.59 686.62 375.82C685.73 377.71 684.84 379.55 683.99 381.32C683.14 383.09 682.36 384.75 681.66 386.26C680.96 387.77 680.33 389.11 679.76 390.26C679.19 391.41 678.76 392.33 678.51 392.97C677.93 394.27 677.51 395.32 677.23 396.11C677.006 396.726 676.826 397.358 676.69 398C676.61 398.364 676.577 398.737 676.59 399.11C676.616 399.408 676.673 399.703 676.76 399.99C676.783 400.145 676.773 400.303 676.732 400.455C676.691 400.606 676.618 400.747 676.52 400.87C676.301 401.149 675.989 401.341 675.64 401.41C675.189 401.497 674.723 401.463 674.29 401.31C673.688 401.107 673.143 400.764 672.7 400.31C672.159 399.771 671.734 399.128 671.45 398.42C671.147 397.599 671.034 396.72 671.12 395.85C671.222 394.674 671.481 393.517 671.89 392.41C672.443 390.852 673.111 389.338 673.89 387.88C674.52 386.71 675.3 385.17 676.22 383.28C677.14 381.39 678.15 379.28 679.22 377L675.37 377.5C674.11 377.66 672.92 377.8 671.82 377.91L668.82 378.21C667.89 378.3 667.16 378.35 666.62 378.35C665.888 378.405 665.152 378.405 664.42 378.35C663.73 378.29 663.06 378.21 662.42 378.12C660.297 381.197 658.344 384.388 656.57 387.68C655.33 390.09 654.57 391.68 654.17 392.51C653.95 393.016 653.805 393.552 653.74 394.1C653.681 394.601 653.591 395.099 653.47 395.59C653.378 395.952 653.215 396.292 652.99 396.59C652.865 396.724 652.704 396.818 652.526 396.86C652.348 396.903 652.162 396.892 651.99 396.83C651.353 396.671 650.738 396.432 650.16 396.12C649.561 395.798 649.014 395.387 648.54 394.9C648.122 394.481 647.783 393.99 647.54 393.45C647.441 393.21 647.4 392.95 647.419 392.692C647.438 392.433 647.517 392.182 647.65 391.96C649.717 388.22 652.003 384.423 654.51 380.57C657.017 376.716 659.683 372.956 662.51 369.29C665.337 365.623 668.307 362.11 671.42 358.75C674.435 355.483 677.644 352.4 681.03 349.52C682.034 348.653 683.082 347.839 684.17 347.08C684.974 346.523 685.82 346.028 686.7 345.6C687.378 345.269 688.093 345.021 688.83 344.86C689.483 344.713 690.151 344.64 690.82 344.64V344.64ZM681.49 372.15L684.09 366.15C684.97 364.096 685.803 362.08 686.59 360.1C687.377 358.12 688.097 356.216 688.75 354.39C689.417 352.57 689.97 350.903 690.41 349.39C689.062 349.558 687.781 350.071 686.69 350.88C684.771 352.142 682.965 353.568 681.29 355.14C678.966 357.288 676.753 359.555 674.66 361.93C672.28 364.596 669.847 367.626 667.36 371.02C666.96 371.56 666.56 372.1 666.18 372.64L665.07 374.2C666.02 374.11 667.14 373.99 668.45 373.82L672.61 373.32C674.06 373.14 675.61 372.95 677.09 372.74L681.49 372.15Z" fill="white"/>
<path d="M715.35 342.68C715.884 342.991 716.318 343.449 716.6 344C716.757 344.211 716.856 344.46 716.886 344.722C716.916 344.984 716.876 345.249 716.77 345.49C716.68 345.63 716.27 346.37 715.55 347.72C714.83 349.07 713.93 350.8 712.85 352.89C711.77 354.98 710.56 357.34 709.24 359.95C707.92 362.56 706.61 365.18 705.35 367.79C704.09 370.4 702.91 372.93 701.83 375.36C700.75 377.79 699.91 379.87 699.33 381.58C701.65 378.628 704.293 375.944 707.21 373.58C708.457 372.566 709.796 371.672 711.21 370.91C712.254 370.309 713.427 369.966 714.63 369.91C715.499 369.843 716.371 370.004 717.158 370.377C717.946 370.751 718.622 371.324 719.12 372.04C720.074 373.632 720.378 375.53 719.97 377.34C719.708 378.648 719.319 379.927 718.81 381.16C718.179 382.754 717.316 384.247 716.25 385.59C715.052 387.094 713.64 388.415 712.06 389.51C710.265 390.731 708.211 391.519 706.06 391.81C704.201 392.16 702.299 392.227 700.42 392.01C699.332 391.903 698.275 391.583 697.31 391.07C696.7 390.66 696.48 390.28 696.67 389.91C696.86 389.54 697.41 389.42 698.35 389.51C699.518 389.633 700.697 389.447 701.77 388.97C703.002 388.436 704.169 387.765 705.25 386.97C706.373 386.16 707.415 385.242 708.36 384.23C709.226 383.324 710.018 382.351 710.73 381.32C711.268 380.563 711.699 379.735 712.01 378.86C712.24 378.14 712.19 377.67 711.88 377.44C711.57 377.21 711.06 377.36 710.26 377.74C709.253 378.236 708.28 378.801 707.35 379.43C706.111 380.258 704.926 381.163 703.8 382.14C702.549 383.204 701.363 384.342 700.25 385.55C699.107 386.787 698.057 388.107 697.11 389.5L694.43 393.42C693.63 394.62 692.89 395.61 692.24 396.42C691.59 397.23 691.02 397.58 690.52 397.53C690.232 397.481 689.96 397.365 689.726 397.191C689.491 397.017 689.301 396.791 689.17 396.53C688.725 395.867 688.387 395.138 688.17 394.37C687.945 393.565 687.818 392.735 687.79 391.9C687.742 391.212 687.873 390.523 688.17 389.9C688.35 389.59 688.83 388.63 689.62 387.03C690.41 385.43 691.37 383.5 692.49 381.22C693.61 378.94 694.84 376.47 696.14 373.78C697.44 371.09 698.72 368.53 699.96 366.05C701.2 363.57 702.33 361.34 703.35 359.36C704.37 357.38 705.11 355.93 705.6 355.03C706.38 353.68 707.09 352.35 707.77 351.03C708.45 349.71 709.05 348.51 709.56 347.38C710.07 346.25 710.5 345.31 710.85 344.55C711.2 343.79 711.39 343.26 711.48 342.99C711.712 342.493 712.128 342.106 712.64 341.91C713.18 341.71 714.09 342 715.35 342.68Z" fill="white"/>
<path d="M743.26 379C743.686 378.707 744.171 378.513 744.68 378.43C745.04 378.43 745.28 378.51 745.39 378.73C745.5 378.95 745.45 379.27 745.22 379.73C744.915 380.238 744.53 380.694 744.08 381.08C743.71 381.4 743.08 381.9 742.21 382.6C741.34 383.3 740.34 384.07 739.21 384.9C738.08 385.73 736.92 386.59 735.65 387.47C734.38 388.35 733.2 389.17 732.07 389.93C730.94 390.69 729.92 391.36 728.99 391.93C728.373 392.355 727.7 392.691 726.99 392.93C726.37 393.11 725.711 393.11 725.09 392.93C724.459 392.748 723.886 392.403 723.43 391.93C722.933 391.387 722.567 390.737 722.36 390.03C722.104 389.203 722.022 388.331 722.12 387.47C722.242 386.355 722.48 385.256 722.83 384.19C723.21 382.95 723.66 381.7 724.18 380.44C724.7 379.18 725.18 378.01 725.8 376.93C726.22 376.066 726.73 375.248 727.32 374.49C727.839 373.727 728.477 373.051 729.21 372.49C729.517 372.321 729.86 372.229 730.21 372.22C730.631 372.261 731.031 372.425 731.36 372.69C731.818 373.014 732.238 373.39 732.61 373.81C732.986 374.216 733.321 374.659 733.61 375.13C733.842 375.441 733.958 375.823 733.94 376.21C733.949 376.414 733.912 376.617 733.83 376.804C733.749 376.992 733.626 377.158 733.47 377.29C733.2 377.47 732.76 377.74 732.12 378.1C731.808 378.397 731.535 378.733 731.31 379.1C730.95 379.62 730.58 380.21 730.2 380.89C729.82 381.57 729.46 382.29 729.11 383.05C728.76 383.81 728.51 384.51 728.3 385.11C728.128 385.579 728.027 386.071 728 386.57C728 386.93 728.15 387.06 728.48 386.97C729.45 386.627 730.387 386.199 731.28 385.69L735.74 383.36C737.34 382.53 738.85 381.7 740.27 380.89C741.69 380.08 742.68 379.4 743.26 379ZM735.69 367.85C735.351 368.123 734.978 368.352 734.58 368.53C734.119 368.748 733.632 368.906 733.13 369C732.671 369.09 732.199 369.09 731.74 369C731.539 368.962 731.35 368.875 731.191 368.746C731.032 368.616 730.908 368.449 730.83 368.26C730.596 367.825 730.392 367.374 730.22 366.91C730.052 366.45 729.928 365.974 729.85 365.49C729.797 365.085 729.797 364.675 729.85 364.27C729.851 364.122 729.897 363.978 729.983 363.858C730.069 363.738 730.191 363.648 730.33 363.6L731.38 363.25L732.63 362.88C733.03 362.77 733.39 362.68 733.71 362.62C733.91 362.567 734.114 362.53 734.32 362.51C734.467 362.492 734.615 362.508 734.756 362.554C734.896 362.601 735.024 362.678 735.13 362.78C735.409 363.022 735.658 363.298 735.87 363.6C736.1 363.91 736.32 364.25 736.55 364.6C736.75 364.93 736.974 365.244 737.22 365.54C737.62 366.04 737.62 366.44 737.22 366.73C736.82 367.02 736.24 367.44 735.69 367.89V367.85Z" fill="white"/>
<path d="M774.42 350.12C774.42 350.21 774.09 350.68 773.54 351.54C772.99 352.4 772.34 353.48 771.54 354.82C770.74 356.16 769.86 357.68 768.87 359.41C767.88 361.14 766.87 362.95 765.93 364.82C764.99 366.69 764.04 368.58 763.16 370.49C762.336 372.268 761.605 374.087 760.97 375.94C760.6 376.94 760.21 377.94 759.78 379.08C759.35 380.22 758.89 381.27 758.39 382.35C759.07 382.08 759.96 381.69 761.06 381.17L764.44 379.62C765.6 379.1 766.66 378.62 767.65 378.3C768.361 378.006 769.113 377.823 769.88 377.76C770.65 377.76 770.88 378.1 770.43 378.64C769.831 379.372 769.161 380.042 768.43 380.64C767.51 381.43 766.43 382.24 765.29 383.07C764.15 383.9 763.17 384.64 762.45 385.27C761.059 386.509 759.567 387.63 757.99 388.62C756.916 389.417 755.607 389.833 754.27 389.8C753.405 389.693 752.588 389.347 751.91 388.8C751.363 388.408 750.957 387.851 750.75 387.21C750.65 386.883 750.573 386.549 750.52 386.21C750.46 385.8 750.4 385.42 750.35 385.06C750.3 384.7 750.26 384.16 750.22 383.71C749.802 384.106 749.361 384.477 748.9 384.82C748.265 385.316 747.597 385.767 746.9 386.17C746.16 386.597 745.38 386.949 744.57 387.22C743.833 387.482 743.047 387.574 742.27 387.49C741.691 387.437 741.134 387.241 740.65 386.92C740.269 386.658 739.932 386.337 739.65 385.97C739.422 385.67 739.249 385.331 739.14 384.97C739.078 384.746 738.987 384.531 738.87 384.33C738.756 384.066 738.711 383.777 738.74 383.49C738.76 382.984 738.847 382.483 739 382C739.208 381.306 739.49 380.635 739.84 380C740.299 379.206 740.853 378.471 741.49 377.81C742.3 376.977 743.161 376.195 744.07 375.47C745.108 374.636 746.201 373.871 747.34 373.18C748.457 372.501 749.608 371.88 750.79 371.32C751.778 370.841 752.809 370.456 753.87 370.17C754.433 370 755.031 369.985 755.602 370.127C756.172 370.27 756.694 370.565 757.11 370.98L763.26 359.63C764.02 358.27 764.75 356.94 765.42 355.63C766.09 354.32 766.69 353.08 767.21 351.95C767.73 350.82 768.16 349.88 768.5 349.12C768.84 348.36 769.05 347.83 769.14 347.56C769.376 347.088 769.789 346.729 770.29 346.56C770.83 346.36 771.73 346.62 772.99 347.34C773.533 347.654 773.969 348.125 774.24 348.69C774.39 348.893 774.486 349.131 774.517 349.382C774.549 349.632 774.515 349.887 774.42 350.12V350.12ZM746.1 381.27L749.04 380.33C750.393 379.878 751.661 379.202 752.79 378.33L753.47 377.86L754.95 375.08L753.47 375.49C752.777 375.784 752.128 376.171 751.54 376.64C750.76 377.22 749.96 377.86 749.18 378.53C748.4 379.2 747.71 379.82 747.11 380.35C746.8 380.685 746.462 380.993 746.1 381.27V381.27Z" fill="white"/>
</svg>
