<svg width="80" height="60" viewBox="0 0 80 60" fill="none" xmlns="http://www.w3.org/2000/svg">
<path d="M56.8096 47.666C60.3526 47.666 63.5572 47.029 66.4235 45.7551C69.2898 44.4414 71.5987 42.6102 73.3503 40.2614C75.1417 37.9127 76.1967 35.1858 76.5151 32.0806H66.4832C66.0453 34.31 64.9107 36.0616 63.0795 37.3355C61.2881 38.5695 59.1981 39.1866 56.8096 39.1866C53.386 39.1866 50.6989 38.2909 48.7482 36.4995C46.7975 34.6682 45.8222 32.0806 45.8222 28.7367V21.9293C45.8222 18.864 46.7179 16.356 48.5093 14.4053C50.3406 12.4547 53.1073 11.4794 56.8096 11.4794C59.1583 11.4794 61.2284 12.0765 63.0198 13.2708C64.8112 14.4252 65.9657 16.157 66.4832 18.4659H76.5151C76.1967 15.3608 75.1616 12.6537 73.41 10.3448C71.6982 8.03587 69.4092 6.24445 66.5429 4.97056C63.7165 3.65685 60.472 3 56.8096 3C52.5102 3 48.7681 3.8559 45.5834 5.56769C42.3986 7.23968 39.9305 9.72776 38.1788 13.0319C36.4272 16.3361 35.5514 20.4165 35.5514 25.2733V25.4524C35.5514 30.0305 36.3476 33.9915 37.94 37.3355C39.5324 40.6396 41.901 43.1874 45.0459 44.9788C48.2307 46.7702 52.1519 47.666 56.8096 47.666Z" fill="white"/>
<path d="M25.8703 57.1007H40.321V49.9351H28.4977V46.0537C33.8719 45.3371 38.0519 43.2272 41.0376 39.724C44.0233 36.181 45.5161 31.3442 45.5161 25.2135V25.0344C45.5161 20.2175 44.6403 16.1769 42.8887 12.9125C41.1371 9.64814 38.6689 7.17997 35.4842 5.50798C32.3393 3.83599 28.5972 3 24.258 3C19.9586 3 16.2165 3.83599 13.0318 5.50798C9.84707 7.17997 7.37889 9.64814 5.62729 12.9125C3.87568 16.1769 2.99988 20.2175 2.99988 25.0344V25.2135C2.99988 31.4238 4.51263 36.3004 7.53813 39.8434C10.6034 43.3865 14.9028 45.4764 20.4363 46.1134L20.3766 52.2042C20.3368 53.6771 20.7747 54.8515 21.6903 55.7273C22.6457 56.6429 24.0391 57.1007 25.8703 57.1007ZM24.3177 38.3506C20.8941 38.3506 18.207 37.4549 16.2564 35.6635C14.3057 33.8322 13.3304 31.2247 13.3304 27.841V21.9293C13.3304 18.864 14.2261 16.356 16.0175 14.4053C17.8487 12.4547 20.6155 11.4794 24.3177 11.4794C28.02 11.4794 30.7668 12.4547 32.5582 14.4053C34.3895 16.356 35.3051 18.864 35.3051 21.9293V27.841C35.3051 31.2247 34.3297 33.8322 32.3791 35.6635C30.4284 37.4549 27.7413 38.3506 24.3177 38.3506Z" fill="#55D4DC"/>
<path d="M28.5724 24.9803C28.5724 27.2275 26.7506 29.0492 24.5034 29.0492C22.2562 29.0492 20.4345 27.2275 20.4345 24.9803C20.4345 22.733 22.2562 20.9113 24.5034 20.9113C26.7506 20.9113 28.5724 22.733 28.5724 24.9803Z" fill="white"/>
</svg>
